<?xml version="1.0" encoding="utf-8"?>
<!-- Generator: Adobe Illustrator 25.2.1, SVG Export Plug-In . SVG Version: 6.00 Build 0)  -->
<svg version="1.1" id="Layer_1" xmlns="http://www.w3.org/2000/svg" xmlns:xlink="http://www.w3.org/1999/xlink" x="0px" y="0px"
	 viewBox="0 0 511.9 511.9" style="enable-background:new 0 0 511.9 511.9;" xml:space="preserve">
<style type="text/css">
	.st0{fill:#CCD1D9;}
	.st1{fill:#434A54;}
	.st2{fill:#4A89DC;}
	.st3{fill:#5D9CEC;}
</style>
<rect x="28.1" y="99.5" class="st0" width="18.7" height="15.6"/>
<path class="st1" d="M56.2,113.5c0-1.7-1.4-3.1-3.1-3.1H21.9c-1.7,0-3.1,1.4-3.1,3.1v3.1h37.4L56.2,113.5L56.2,113.5z"/>
<path class="st2" d="M63.1,62l-51.2,0C10.2,62,0.4,97.9,0.1,99.5v3.1c-0.4,1.7,0.8,3,2.5,3l69.9,0c1.7,0,2.8-1.4,2.5-3l0.1-2.6
	C74.6,98.4,64.8,62,63.1,62L63.1,62z"/>
<path class="st3" d="M63.1,58.9l-51.2,0c-1.7,0-3.4,1.4-3.8,3.1L0.1,99.5c-0.4,1.7,0.8,3.1,2.5,3.1l69.9,0c1.7,0,2.8-1.4,2.5-3
	L66.9,62C66.5,60.3,64.8,58.9,63.1,58.9L63.1,58.9z"/>
<path class="st2" d="M70.1,76.9l-11.8,0l-0.8-6.7l11.2,0L68,67l-10.8,0l-0.9-8.1H53L54,67h-8.9l-0.3-8.1h-3.1l0.3,8.1H33l0.3-8.1
	h-3.1L29.9,67H21l0.9-8.1h-3.1L17.8,67H7l-0.7,3.1h11.1l-0.7,6.7H4.9L4.3,80h12.1l-0.9,7.8H2.6l-0.7,3.1h13.2l-1.3,11.7H17l1.3-11.7
	H29l-0.4,11.7h3.1l0.4-11.7h10.8l0.5,11.7h3.1L46,90.9h10.7l1.4,11.7h3.1l-1.4-11.7l13.2,0l-0.7-3.1l-12.9,0L58.6,80l12.1,0
	L70.1,76.9z M29.1,87.8H18.6l0.9-7.8h9.9L29.1,87.8z M29.5,76.8h-9.7l0.7-6.7h9.2L29.5,76.8z M32.9,70.1h9.2l0.3,6.7h-9.7L32.9,70.1
	z M32.2,87.8l0.3-7.8h9.9l0.3,7.8H32.2z M45.2,70.1h9.1l0.8,6.7h-9.6L45.2,70.1z M45.9,87.8L45.6,80h9.9l0.9,7.8H45.9z"/>
</svg>
